<svg xmlns="http://www.w3.org/2000/svg" width="600.782" height="32.111" viewBox="0 0 600.782 32.111">
  <g id="Group_24788" data-name="Group 24788" transform="translate(-845.665 -1227)">
    <text id="קהילת_התרבות_והאמנות_של_ישראל" data-name="קהילת התרבות והאמנות של ישראל" transform="translate(845.665 1227)" fill="#fff" font-size="20" font-family="SegoeUI, Segoe UI" letter-spacing="0.02em"><tspan x="-158" y="22">קהילת התרבות והאמנות של ישראל</tspan></text>
    <path id="Path_81" data-name="Path 81" d="M200.9,106.244c1.007-.02,2.015.04,3.022-.02.806-.06.987.262.967,1.007-.04,1.491,0,2.962-.02,4.453-.02,2.478-.02,6.79-.04,9.268h5.883V106.224h4.614c.242-1.954.484-3.808.746-5.783-1.652,0-3.143-.02-4.614,0-.544.02-.766-.141-.745-.725.04-1.007,0-2.015.02-3.022a1.793,1.793,0,0,1,1.975-1.975q1.39-.03,2.781,0c.5.02.705-.161.705-.685-.02-1.31-.04-2.6,0-3.909.02-.584-.2-.725-.746-.725-1.41.02-2.821-.02-4.211.02a6.267,6.267,0,0,0-6.166,5,21.792,21.792,0,0,0-.181,3.647c-.02.766,0,1.511,0,2.337-1.41,0-2.7.02-3.989,0-.524,0-.705.181-.705.705.02,1.491.02,2.982,0,4.453C200.175,106.144,200.417,106.264,200.9,106.244Z" transform="translate(997.078 1137.6)" fill="#fff"/>
    <g id="Group_1349" data-name="Group 1349" transform="translate(1240.881 1228.6)">
      <path id="Path_89" data-name="Path 89" d="M752.194,122.827c-1.477,0-2.933.02-4.41,0a18.934,18.934,0,0,1-4.269-.364,7.892,7.892,0,0,1-6.251-6.352,16.623,16.623,0,0,1-.323-3.48c-.02-3.378-.02-6.737,0-10.115a14.23,14.23,0,0,1,.486-4.127,7.843,7.843,0,0,1,6.19-5.725,16.628,16.628,0,0,1,3.479-.324q5.068-.03,10.135,0a14.7,14.7,0,0,1,3.985.445,7.855,7.855,0,0,1,5.867,6.271,18.825,18.825,0,0,1,.324,4.127q.03,4.37,0,8.739a17.986,17.986,0,0,1-.364,4.289,7.834,7.834,0,0,1-6.413,6.271,19.311,19.311,0,0,1-4.026.324C755.168,122.847,753.691,122.827,752.194,122.827Zm.02-27.837v.04c-1.234,0-2.448-.02-3.682,0a24.5,24.5,0,0,0-4.208.263,5.165,5.165,0,0,0-4.268,3.9,12.313,12.313,0,0,0-.344,2.974c-.021,3.136-.041,6.271-.041,9.407a18.7,18.7,0,0,0,.263,3.844,5.16,5.16,0,0,0,3.924,4.269,10.472,10.472,0,0,0,2.852.324q5.462.03,10.924,0a13.612,13.612,0,0,0,2.387-.223,5.131,5.131,0,0,0,4.309-3.925,11.361,11.361,0,0,0,.324-2.974c.02-3.561.02-7.121,0-10.7a12.383,12.383,0,0,0-.263-2.731,5.193,5.193,0,0,0-2.549-3.561,7.077,7.077,0,0,0-3.277-.809C756.462,95.071,754.338,95.051,752.214,94.99Z" transform="translate(-736.925 -92.325)" fill="#fff"/>
      <path id="Path_90" data-name="Path 90" d="M781.529,129a7.839,7.839,0,1,1-7.829,7.748A7.84,7.84,0,0,1,781.529,129Zm.02,2.731a5.108,5.108,0,1,0,5.1,5.118A5.12,5.12,0,0,0,781.549,131.731Z" transform="translate(-766.26 -121.58)" fill="#fff"/>
      <path id="Path_91" data-name="Path 91" d="M845.455,122.14a1.821,1.821,0,1,1,1.8-1.861A1.8,1.8,0,0,1,845.455,122.14Z" transform="translate(-822.013 -113.203)" fill="#fff"/>
    </g>
    <path id="Path_83" data-name="Path 83" d="M455.6,133.4a13.426,13.426,0,0,0,6.872-1.089,11.859,11.859,0,0,0,2.767-1.678,9.26,9.26,0,0,1-1.588-.249,5.625,5.625,0,0,1-1.474-.612,7.776,7.776,0,0,1-1.315-.953,6.809,6.809,0,0,1-1.021-1.247,6.481,6.481,0,0,1-.7-1.5.442.442,0,0,1,.181.023,6.728,6.728,0,0,0,2.608-.113.2.2,0,0,0,.136-.068,6.651,6.651,0,0,1-4.49-3.4,6.462,6.462,0,0,1-.771-3.13,7.224,7.224,0,0,0,1.452.59,5.665,5.665,0,0,0,1.5.2,6.682,6.682,0,0,1-2.041-8.8,18.886,18.886,0,0,0,9.775,6.3,16.863,16.863,0,0,0,3.855.59c-.023-.113-.023-.2-.045-.295a6.554,6.554,0,0,1,4.967-7.62,6.413,6.413,0,0,1,6.214,1.792.292.292,0,0,0,.272.091,13.511,13.511,0,0,0,3.833-1.451.569.569,0,0,0,.181-.113.769.769,0,0,1-.068.181,6.617,6.617,0,0,1-2.631,3.289.6.6,0,0,0-.136.113,12.418,12.418,0,0,0,3.674-.975.23.23,0,0,1-.091.159,13.232,13.232,0,0,1-2.994,3.062.368.368,0,0,0-.159.318,14.327,14.327,0,0,1-.045,1.973,20.448,20.448,0,0,1-.544,3.334,19.29,19.29,0,0,1-4.445,8.255,17.392,17.392,0,0,1-9.095,5.352,19.171,19.171,0,0,1-2.54.431,19.728,19.728,0,0,1-3.062.068A18.062,18.062,0,0,1,458,134.643a16.64,16.64,0,0,1-2.268-1.2C455.691,133.463,455.645,133.441,455.6,133.4Zm17.781.227h.045v-.068H473.4A.083.083,0,0,0,473.381,133.622Z" transform="translate(958.846 1121.637)" fill="#fff"/>
    <path id="Path_86" data-name="Path 86" d="M1044.031,139.677c-2.459-.046-4.919-.114-7.378-.182-1.161-.023-2.3-.068-3.461-.182a7.264,7.264,0,0,1-2.573-.569,3.851,3.851,0,0,1-1.959-2.3,13.348,13.348,0,0,1-.615-3.552,73.556,73.556,0,0,1-.068-8.676c.045-1.025.159-2.049.273-3.074a6.841,6.841,0,0,1,.82-2.55,3.844,3.844,0,0,1,2.482-1.844,15.16,15.16,0,0,1,3.028-.3c1.845-.068,3.689-.137,5.511-.159,2.391-.023,4.759-.046,7.151-.023,1.913.023,3.826.091,5.715.159a27.533,27.533,0,0,1,3.074.25,3.883,3.883,0,0,1,3.347,2.869,13.03,13.03,0,0,1,.569,3.12,66.883,66.883,0,0,1,.159,7.7c-.046,1.435-.182,2.869-.319,4.281a7.109,7.109,0,0,1-.638,2.254,3.741,3.741,0,0,1-2.709,2.209,12.872,12.872,0,0,1-2.072.251c-2.232.091-4.44.182-6.672.228-1.23.023-2.437,0-3.666,0Zm-3.324-16.76v9.359c2.915-1.548,5.807-3.1,8.722-4.668C1046.49,126.037,1043.621,124.488,1040.706,122.917Z" transform="translate(271.134 1115.542)" fill="#fff"/>
    <path id="tiktok-svgrepo-com_1_" data-name="tiktok-svgrepo-com (1)" d="M16.231.027C17.984,0,19.723.013,21.462,0A8.334,8.334,0,0,0,23.8,5.579a9.435,9.435,0,0,0,5.673,2.395v5.392a14.321,14.321,0,0,1-5.619-1.3,16.531,16.531,0,0,1-2.167-1.244c-.013,3.907.013,7.814-.027,11.707A10.219,10.219,0,0,1,19.857,27.8,9.968,9.968,0,0,1,11.949,32.1a9.756,9.756,0,0,1-5.459-1.378,10.089,10.089,0,0,1-4.884-7.64c-.027-.669-.04-1.338-.013-1.994a10.072,10.072,0,0,1,11.68-8.937c.027,1.98-.054,3.96-.054,5.94a4.591,4.591,0,0,0-5.86,2.836,5.308,5.308,0,0,0-.187,2.154,4.554,4.554,0,0,0,4.683,3.84,4.5,4.5,0,0,0,3.706-2.154,3.087,3.087,0,0,0,.549-1.418c.134-2.395.08-4.776.094-7.171.013-5.392-.013-10.77.027-16.149Z" transform="translate(1357.331 1227)" fill="#fff"/>
  </g>
</svg>
