<svg id="Group_81" data-name="Group 81" xmlns="http://www.w3.org/2000/svg" width="48" height="48" viewBox="0 0 48 48">
  <g id="Group_29" data-name="Group 29" transform="translate(0 0)">
    <path id="Path_45" data-name="Path 45" d="M41.006,7.032A23.993,23.993,0,1,0,48.037,24,23.993,23.993,0,0,0,41.006,7.032Zm-4.622,26.4h0l-1.219,1.2a6.382,6.382,0,0,1-6.038,1.725,21.416,21.416,0,0,1-6.179-2.766,29.5,29.5,0,0,1-8.513-8.344A22.437,22.437,0,0,1,11.7,19.708a6.379,6.379,0,0,1,1.6-6.535l1.425-1.425a1.01,1.01,0,0,1,1.434,0h0l4.5,4.5a1.01,1.01,0,0,1,0,1.434h0l-2.644,2.644a2.155,2.155,0,0,0-.225,2.8,31.186,31.186,0,0,0,3.16,3.685,30.916,30.916,0,0,0,4.163,3.5,2.161,2.161,0,0,0,2.766-.244l2.55-2.588a1.01,1.01,0,0,1,1.434,0h0l4.5,4.51A1.013,1.013,0,0,1,36.384,33.434Z" transform="translate(-0.037)" fill="#79c49d"/>
  </g>
</svg>
