<svg id="email" xmlns="http://www.w3.org/2000/svg" width="48" height="48" viewBox="0 0 48 48">
  <path id="Path_97" data-name="Path 97" d="M155.22,144H133.625l10.8,9.255Zm0,0" transform="translate(-120.422 -128.943)" fill="#a1d6ff"/>
  <path id="Path_98" data-name="Path 98" d="M132.425,163.738a.954.954,0,0,1-.622-.231L120,153.391v17.994h24.85V153.391l-11.8,10.117A.954.954,0,0,1,132.425,163.738Zm0,0" transform="translate(-108.425 -137.914)" fill="#a1d6ff" stroke="#000" stroke-width="1"/>
  <path id="Path_99" data-name="Path 99" d="M24,0A24,24,0,1,0,48,24,24,24,0,0,0,24,0ZM36.857,33.429a.857.857,0,0,1-.857.857H12a.857.857,0,0,1-.857-.857V14.571A.857.857,0,0,1,12,13.714H36a.857.857,0,0,1,.857.857Zm0,0" fill="#a1d6ff"/>
</svg>
