<svg xmlns="http://www.w3.org/2000/svg" xmlns:xlink="http://www.w3.org/1999/xlink" width="502" height="280" viewBox="0 0 502 280">
  <defs>
    <filter id="Bg" x="0" y="0" width="502" height="280" filterUnits="userSpaceOnUse">
      <feOffset dx="30" dy="30" input="SourceAlpha"/>
      <feGaussianBlur stdDeviation="40" result="blur"/>
      <feFlood flood-opacity="0.302"/>
      <feComposite operator="in" in2="blur"/>
      <feComposite in="SourceGraphic"/>
    </filter>
  </defs>
  <g id="Group_1210" data-name="Group 1210" transform="translate(-622 61)">
    <g transform="matrix(1, 0, 0, 1, 622, -61)" filter="url(#Bg)">
      <g id="Bg-2" data-name="Bg" transform="translate(90 90)" fill="#fff" stroke="#fff" stroke-width="0.2">
        <rect width="262" height="40" rx="20" stroke="none"/>
        <rect x="0.1" y="0.1" width="261.8" height="39.8" rx="19.9" fill="none"/>
      </g>
    </g>
    <g id="Group_1207" data-name="Group 1207" transform="translate(715.564 32.564)">
      <circle id="Ellipse_2" data-name="Ellipse 2" cx="16.5" cy="16.5" r="16.5" transform="translate(0.436 0.436)" fill="#106db4"/>
      <path id="search" d="M12.7,15.523c.03-.2.052-.4.1-.6a4.8,4.8,0,0,1,1.791-2.9,4.8,4.8,0,0,1,5.389-.348,4.807,4.807,0,0,1,2.013,2.272,4.692,4.692,0,0,1,.348,2.546,4.74,4.74,0,0,1-.962,2.309,1.082,1.082,0,0,0-.067.1c.03.037.067.067.1.1l3.331,3.331a.489.489,0,0,1,.111.681,1.484,1.484,0,0,1-.318.237h-.215a3.727,3.727,0,0,1-.385-.289q-1.621-1.61-3.235-3.235c-.037-.037-.074-.067-.111-.1-.059.044-.111.081-.155.118a4.849,4.849,0,0,1-7.609-2.828c-.059-.244-.081-.489-.118-.74Zm4.841,4.153a3.823,3.823,0,1,0-3.82-3.827A3.83,3.83,0,0,0,17.541,19.676Z" transform="translate(-2.32 -0.576)" fill="#fff"/>
    </g>
  </g>
</svg>
