<svg xmlns="http://www.w3.org/2000/svg" width="62.171" height="41.317" viewBox="0 0 62.171 41.317">
  <path id="Path_1664" data-name="Path 1664" d="M43.389,22.707a8.637,8.637,0,0,0,8.45-8.854,8.472,8.472,0,1,0-16.927,0A8.66,8.66,0,0,0,43.389,22.707Zm-22.607,0a8.637,8.637,0,0,0,8.45-8.854A8.637,8.637,0,0,0,20.782,5,8.66,8.66,0,0,0,12.3,13.854,8.66,8.66,0,0,0,20.782,22.707Zm0,5.9C14.2,28.61,1,32.063,1,38.939v7.378H40.563V38.939C40.563,32.063,27.366,28.61,20.782,28.61Zm22.607,0c-.82,0-1.752.059-2.741.148,3.278,2.479,5.567,5.814,5.567,10.182v7.378H63.171V38.939C63.171,32.063,49.973,28.61,43.389,28.61Z" transform="translate(-1 -5)" fill="#00508d" opacity="0.92"/>
</svg>
