<svg xmlns="http://www.w3.org/2000/svg" width="51" height="50.16" viewBox="0 0 51 50.16">
  <path id="Path_1671" data-name="Path 1671" d="M42.667,25.293V3H14.333V14.147H3V53.16H25.667V42.013h5.667V53.16H54V25.293ZM14.333,47.587H8.667V42.013h5.667Zm0-11.147H8.667V30.867h5.667Zm0-11.147H8.667V19.72h5.667ZM25.667,36.44H20V30.867h5.667Zm0-11.147H20V19.72h5.667Zm0-11.147H20V8.573h5.667ZM37,36.44H31.333V30.867H37Zm0-11.147H31.333V19.72H37Zm0-11.147H31.333V8.573H37Zm11.333,33.44H42.667V42.013h5.667Zm0-11.147H42.667V30.867h5.667Z" transform="translate(-3 -3)" fill="#00508d" opacity="0.92"/>
</svg>
