<svg xmlns="http://www.w3.org/2000/svg" width="53.5" height="51.068" viewBox="0 0 53.5 51.068">
  <g id="Group_25283" data-name="Group 25283" transform="translate(-1521.335 -2233.548)">
    <path id="Path_1676" data-name="Path 1676" d="M5.864,9H1V35.75a4.847,4.847,0,0,0,4.864,4.864H44.773V35.75H5.864Z" transform="translate(1520.335 2244.002)" fill="#00508d" opacity="0.92"/>
    <path id="Path_1677" data-name="Path 1677" d="M36.614,10.727V5.864A4.847,4.847,0,0,0,31.75,1H22.023a4.847,4.847,0,0,0-4.864,4.864v4.864H5v26.75a4.847,4.847,0,0,0,4.864,4.864H43.909a4.847,4.847,0,0,0,4.864-4.864V10.727ZM22.023,5.864H31.75v4.864H22.023Zm0,29.182V18.023L35.4,26.534Z" transform="translate(1526.063 2232.548)" fill="#00508d" opacity="0.92"/>
  </g>
</svg>
