<svg xmlns="http://www.w3.org/2000/svg" width="48" height="57.131" viewBox="0 0 48 57.131">
  <path id="smart-work-artificial-intelligence-ai-svgrepo-com" d="M28.255,24.875a4.882,4.882,0,1,1-2.607-6.393,4.874,4.874,0,0,1,2.607,6.393ZM45.531,38.365V44.44a8.553,8.553,0,0,1-8.547,8.547h-3.4v6.144H10.458V40.745A21.687,21.687,0,0,1,23.834,2c9.839,0,18.908,7.391,20.789,15.507.431,1.814.907,6.529.907,6.529l4.512,11.88a1.656,1.656,0,0,1,.136.68A6.989,6.989,0,0,1,45.531,38.365ZM33.016,21.452l2.766-1.723-1.156-2.834-3.2.725a9.493,9.493,0,0,0-2.222-2.244l.748-3.174-2.834-1.179-1.746,2.766a9.939,9.939,0,0,0-3.174-.023l-1.7-2.811-2.857,1.156.725,3.174a9.493,9.493,0,0,0-2.244,2.222l-3.174-.748-1.2,2.834,2.766,1.746a9.939,9.939,0,0,0-.023,3.174l-2.766,1.746,1.156,2.834,3.174-.725a9.493,9.493,0,0,0,2.222,2.244l-.748,3.174,2.834,1.179L22.111,32.2a9.939,9.939,0,0,0,3.174.023l1.723,2.766,2.834-1.156-.725-3.2a9.493,9.493,0,0,0,2.244-2.222l3.174.748,1.179-2.834-2.766-1.746A7.652,7.652,0,0,0,33.016,21.452Z" transform="translate(-2.178 -2)" fill="#00508d" opacity="0.92"/>
</svg>
